<?xml version="1.0" ?>
<svg xmlns:ns0="http://www.w3.org/2000/svg" xmlns="http://www.w3.org/2000/svg" width="1000" height="1000" version="1.1">
	<ns0:polygon points="104.224,771.239 111.776,830.761 381.776,796.503 374.224,736.981 268.198,750.434 268.62,438.228 361.225,434.443 358.775,374.493 268.701,378.174 268.847,270.041 208.847,269.959 208.697,380.627 124.775,384.057 127.225,444.007 208.616,440.681 208.188,758.048 "/>
	
	
	<ns0:polygon points="318.189,227.6 387.303,227.165 391.887,314.571 451.805,311.429 447.366,226.786 728.315,225.018 716.862,302.408 776.215,311.192 789.025,224.635 858.189,224.2 857.811,164.201 797.913,164.578 804.6,119.392 745.247,110.608 737.203,164.96 444.22,166.805 441.42,113.429 381.502,116.571 384.157,167.183 317.811,167.601 "/>
	
	
	<ns0:path d="M711.675,476.139 c59.663,-52.976 102.31,-95.592 104.556,-97.842 l-42.461,-42.392 c-0.261,0.262 -10.529,10.522 -27.794,27.02 l-0.551,-15.364 L636.0,351.486 V306.0 h-60.0 v47.638 l-115.575,4.145 l2.15,59.961 L576.0,413.676 v64.109 l-216.364,2.624 l0.728,59.995 l181.11,-2.197 c-68.125,50.401 -122.525,80.228 -157.116,85.646 l9.285,59.277 c27.205,-4.261 59.493,-17.288 98.048,-39.609 l-2.19,256.001 l59.998,0.514 l0.064,-7.454 l167.61,-2.23 l-0.168,9.091 l59.99,0.941 L782.563,600.0 h-0.417 l26.067,-40.414 l-37.875,-24.24 l121.026,-1.425 l-0.728,-59.974 L711.675,476.139 zM696.17,409.367 c-18.111,16.486 -38.499,34.609 -60.17,53.127 v-50.97 L696.17,409.367 zM720.379,717.501 l-169.32,0.173 l0.488,-56.979 l169.891,-0.259 L720.379,717.501 zM550.076,832.57 l0.47,-54.896 l168.721,-0.172 l-0.98,52.83 L550.076,832.57 zM760.428,600.377 l-202.837,0.309 c25.773,-18.323 53.479,-39.609 82.863,-63.678 l62.796,-0.762 l-12.462,19.403 L760.428,600.377 z"/>
	
	
</svg>
