<?xml version="1.0" ?>
<svg xmlns:ns0="http://www.w3.org/2000/svg" xmlns="http://www.w3.org/2000/svg" width="1000" height="1000" version="1.1">
	<ns0:polygon points="95.35500000000002,771.315 104.02999999999997,830.685 345.337,795.427 336.663,736.058 262.202,746.937 262.6199999999999,437.569 333.327,434.438 330.673,374.497 262.701,377.507 262.847,270.041 202.84699999999998,269.959 202.6980000000001,380.164 114.673,384.062 117.327,444.003 202.61599999999999,440.227 202.19000000000005,755.706 "/>
	
	
	<ns0:polygon points="712.403,838.047 712.346,806.859 809.6600000000001,804.718 808.3399999999999,744.733 712.2349999999999,746.847 712.202,728.945 652.202,729.055 652.2370000000001,748.167 556.481,750.273 557.8,810.258 652.348,808.179 652.406,839.35 484.04099999999994,843.007 485.34400000000005,902.993 899.6510000000001,893.993 898.3489999999999,834.007 "/>
	
	
	<ns0:path d="M471.1890000000001,172.466 l428.334,-7.47 l-1.046,-59.991 l-458.98,8.005 l-31.079,0.544 l1.644,31.04 c0.067,1.26 6.579,127.738 -1.256,281.477 c-10.249,201.104 -40.141,357.307 -86.443,451.72 l53.87,26.419 c28.106,-57.31 50.467,-133.428 66.46,-226.239 c12.609,-73.173 21.379,-157.099 26.066,-249.447 C474.40100000000007,317.338 472.6869999999999,220.073 471.1890000000001,172.466 z"/>
	
	
	<ns0:rect x="1500.263" y="621.581" transform="matrix(-0.5976 -0.8018 0.8018 -0.5976 919.6436000000001 2273.2661)" width="60" height="66.694"/>
	
	
	<ns0:path d="M843.3689999999999,687.752 l48.418,-35.436 l-40.074,-54.756 l21.099,-0.571 l-1.624,-59.979 l-138.116,3.741 l1.212,-57.779 l81.716,-1.521 V486.0 h60.0 V230.469 l-337.106,10.19 l0.071,2.341 H528.0 v252.0 h60.0 v-9.303 l86.248,-1.606 l-1.223,58.287 l-134.145,3.633 l1.624,59.979 l91.882,-2.488 l-41.019,31.925 l49.061,63.034 l47.349,-36.853 l-45.436,-58.377 l92.717,-2.511 l-40.988,29.998 l49.061,67.034 l48.418,-35.436 l-45.303,-61.899 l78.713,-2.132 l-30.651,22.433 L843.3689999999999,687.752 zM816.0,352.398 l-20.994,-36.382 l-53.475,30.856 l29.987,51.969 L816.0,373.174 v48.267 l-80.457,1.498 l2.691,-128.278 L816.0,292.31 V352.398 zM588.0,425.687 v-57.556 l45.331,37.915 l38.494,-46.023 l-49.061,-41.034 L588.0,360.553 v-61.351 l90.184,-2.726 l-2.677,127.581 L588.0,425.687 z"/>
	
	
</svg>
