<?xml version="1.0" ?>
<svg xmlns:ns0="http://www.w3.org/2000/svg" xmlns="http://www.w3.org/2000/svg" width="1000" height="1000" version="1.1">
	<ns0:polygon points="865.0,126.0 805.0,126.0 805.0,249.8 541.0,256.935 541.0,72.0 481.0,72.0 481.0,258.557 199.0,266.178 199.0,144.0 139.0,144.0 139.0,327.822 865.0,308.2 "/>
	
	
	<ns0:path d="M690.422,550.657 l36.614,-43.419 l-45.868,-38.68 l-70.748,83.896 l-168.637,3.79 l86.799,-122.138 l324.169,-8.116 l-1.502,-59.981 l-719.0,18.0 l1.502,59.981 l319.89,-8.008 l-86.66,121.943 l-270.654,6.082 l1.348,59.984 l225.964,-5.078 l-73.646,103.631 l154.103,74.584 l-78.028,92.531 l45.868,38.68 l87.897,-104.234 l231.201,111.898 l26.139,-54.007 L499.75,776.768 l139.086,-164.937 l259.838,-5.839 l-1.348,-59.984 L690.422,550.657 zM444.0129999999999,749.792 l-104.004,-50.337 l58.432,-82.221 l160.394,-3.604 L444.0129999999999,749.792 z"/>
	
	
</svg>
