<?xml version="1.0" ?>
<svg xmlns:ns0="http://www.w3.org/2000/svg" xmlns="http://www.w3.org/2000/svg" width="1000" height="1000" version="1.1">
	<ns0:polygon points="322.98199999999997,330.558 138.76800000000003,339.558 100.32200000000012,374.283 112.49800000000005,616.223 324.19900000000007,607.324 318.50199999999995,814.502 293.71900000000005,837.295 273.7080000000001,810.185 225.4340000000002,845.815 285.1379999999999,926.705 377.7829999999999,841.499 385.94399999999996,544.676 169.43100000000004,553.777 161.67799999999988,399.717 163.08899999999994,398.442 347.3029999999999,389.442 384.9470000000001,355.441 387.28099999999995,105.0 104.404,105.0 76.56899999999996,167.852 131.43100000000004,192.148 143.45299999999997,165.0 326.71900000000005,165.0 325.19500000000016,328.559 "/>
	
	
	<ns0:path d="M690.0,397.708 V224.0 h-181.0 v186.226 L690.0,397.708 zM569.0,284.0 h61.0 v57.714 l-61.0,4.219 V284.0 z"/>
	
	
	<ns0:polygon points="437.4169999999999,520.111 438.5830000000001,580.1 769.0169999999998,573.671 767.3899999999999,848.02 718.2950000000001,862.174 734.9160000000002,919.826 827.1219999999998,893.243 829.0250000000001,572.503 906.5830000000001,570.994 905.4169999999999,511.006 "/>
	
	
	<ns0:polygon points="778.0140000000001,167.221 775.491,407.991 726.2950000000001,422.174 742.9160000000002,479.826 835.0210000000002,453.272 838.0279999999998,166.182 906.52,164.996 905.48,105.004 437.48,113.11 438.52,173.101 "/>
	
	
	<ns0:path d="M693.0,647.0 h-183.517 l-3.009,185.173 L693.0,819.784 V647.0 zM633.0,763.637 l-65.475,4.349 l0.991,-60.985 H633.0 V763.637 z"/>
	
	
</svg>
