<?xml version="1.0" ?>
<svg xmlns:ns0="http://www.w3.org/2000/svg" xmlns="http://www.w3.org/2000/svg" width="1000" height="1000" version="1.1">
	<ns0:polygon points="199.98400000000038,166.649 201.9300000000003,487.98 101.16700000000037,534.28 126.21799999999985,588.8 202.32899999999972,553.827 204.0569999999998,839.0 203.4369999999999,839.419 192.72500000000036,821.565 141.27499999999964,852.435 184.5630000000001,924.582 264.25,870.742 262.16299999999956,526.334 368.52499999999964,477.462 343.47500000000036,422.942 261.7640000000001,460.487 259.97900000000027,165.857 365.39599999999973,164.465 364.60400000000027,104.47 94.60399999999981,108.035 95.39600000000019,168.03 "/>
	
	
	<ns0:polygon points="653.0,105.0 653.0,165.0 823.4589999999998,165.0 829.973,178.026 827.335,852.329 795.4120000000003,865.167 817.799,920.833 887.1769999999997,892.934 890.0,171.117 890.027,163.973 860.5410000000002,105.0 "/>
	
	
	<ns0:rect x="4713.0" y="271.708" transform="matrix(0.6402 0.7682 -0.7682 0.6402 -2030.5984 -3520.6631)" width="60" height="140.584"/>
	
	
	<ns0:rect x="4722.0" y="532.708" transform="matrix(0.6402 0.7682 -0.7682 0.6402 -1826.8516 -3433.6619)" width="60" height="140.584"/>
	
	
	<ns0:polygon points="410.0,105.0 410.0,165.0 580.4589999999998,165.0 586.8810000000003,177.844 575.5929999999998,852.225 543.4120000000003,865.167 565.799,920.833 634.9189999999999,893.038 647.1189999999997,164.155 617.5410000000002,105.0 "/>
	
	
	<ns0:rect x="4426.745" y="307.5" transform="matrix(0.7372 -0.6757 0.6757 0.7372 -3045.2507 3129.4712)" width="146.509" height="60"/>
	
	
		
	<ns0:rect x="4408.745" y="595.5" transform="matrix(-0.7372 0.6757 -0.6757 -0.7372 4208.5908 -1942.0081)" width="146.509" height="60"/>
	

</svg>
