<?xml version="1.0" ?>
<svg xmlns:ns0="http://www.w3.org/2000/svg" xmlns="http://www.w3.org/2000/svg" width="1000" height="1000" version="1.1">
	<ns0:path d="M155.72299999999996,744.016 l1.94,59.969 l200.067,-6.474 l-0.345,49.374 l-34.072,16.839 l26.584,53.789 l67.229,-33.225 l2.904,-416.09 l175.793,-3.38 l-0.67,435.008 l60.0,0.093 l0.148,-96.325 l213.802,-7.871 l-2.207,-59.959 l-211.502,7.786 l0.06,-38.962 l213.649,-7.865 l-2.207,-59.959 l-211.35,7.781 l0.06,-38.962 l213.497,-7.86 l-2.207,-59.959 l-211.197,7.775 l0.126,-81.875 l86.752,-1.668 L742.5200000000004,459.0 H761.0 V104.772 l-488.239,9.955 l0.062,2.991 l-19.82,0.209 l3.709,351.169 l17.826,-0.188 l0.04,2.086 l85.444,-1.643 l-0.489,70.069 l-203.81,6.595 l1.94,59.969 l201.45,-6.518 l-0.272,38.977 l-203.118,6.572 l1.94,59.969 l200.759,-6.496 l-0.272,38.978 L155.72299999999996,744.016 zM315.1189999999997,318.144 L701.0,309.041 v93.742 l-384.908,7.402 L315.1189999999997,318.144 zM701.0,249.023 l-386.514,9.119 l-0.891,-84.235 L701.0,166.007 V249.023 z"/>
	
	
</svg>
