<?xml version="1.0" ?>
<svg xmlns:ns0="http://www.w3.org/2000/svg" xmlns="http://www.w3.org/2000/svg" width="1000" height="1000" version="1.1">
	<ns0:path d="M891.352,245.29600000000005 l-0.704,-59.996 L657.0,188.0429999999999 V98.0 h-60.0 v90.747 l-219.352,2.575 l0.704,59.996 l124.825,-1.465 l4.746,112.985 l-75.491,1.687 l1.34,59.984 l403.898,-9.023 l-1.34,-59.984 l-75.301,1.683 l4.979,-110.417 L891.352,245.29600000000005 zM700.907,358.52700000000004 l-132.987,2.971 l-4.72,-112.35 l142.715,-1.676 L700.907,358.52700000000004 z"/>
	
	
	<ns0:polygon points="269.376,336.7360000000001 269.673,323.8420000000001 384.275,322.78999999999996 383.725,262.7919999999999 271.056,263.826 274.839,99.69100000000003 214.854,98.30899999999997 211.027,264.37699999999995 113.725,265.27099999999996 114.275,325.269 209.645,324.39300000000003 207.365,423.31600000000003 70.661,816.8489999999999 127.339,836.537 202.852,619.1569999999999 196.161,909.471 256.146,910.854 266.589,457.6890000000001 342.611,598.271 395.389,569.729 269.389,336.72900000000004 "/>
	
	
		
	<ns0:path d="M454.075,457.98299999999995 L443.0,458.02 l0.915,280.0 l60.0,-0.195 l-0.016,-4.824 h101.683 l0.301,160.757 l76.78,27.499 l81.333,-35.486 l-23.994,-54.994 l-59.517,25.969 l-14.682,-5.259 L665.583,733.0 H771.0 v4.0 h60.0 v-290.535 l-377.0,3.498 L454.075,457.98299999999995 zM503.169,509.51 l101.993,-0.947 l0.103,54.784 l-101.919,0.059 L503.169,509.51 zM503.703,673.0 l-0.162,-49.596 l101.836,-0.058 L605.47,673.0 H503.703 zM665.47,673.0 l-0.093,-49.688 l105.623,-0.06 V673.0 H665.47 zM771.0,563.2529999999999 l-105.735,0.06 l-0.104,-55.307 L771.0,507.0229999999999 V563.2529999999999 z"/>
	
	
</svg>
