<?xml version="1.0" ?>
<svg xmlns:ns0="http://www.w3.org/2000/svg" xmlns="http://www.w3.org/2000/svg" width="1000" height="1000" version="1.1">
	<ns0:path d="M702.733,533.0 H737.0 v6.0 h60.0 v-188.281 l-194.986,4.311 l-0.014,-5.108 l-60.0,0.158 l0.5,189.58 l60.0,-0.158 l-0.017,-6.501 h40.25 l-0.106,35.612 l-114.518,2.302 l-0.217,-2.541 l-59.783,5.098 l21.915,257.0 l59.783,-5.098 l-16.59,-194.549 l109.231,-2.196 l-0.802,270.063 l60.0,0.178 l0.806,-271.446 l117.936,-2.371 l-14.724,179.775 l-65.518,31.067 l25.707,54.214 l96.785,-45.895 l22.973,-280.485 l-182.981,3.679 L702.733,533.0 zM602.172,415.03999999999996 l134.828,-2.979 V473.0 h-134.675 L602.172,415.03999999999996 z"/>
	
	
	<ns0:path d="M332.13599999999997,686.664 l5.134,53.736 l-56.853,9.791 l2.515,-302.043 l55.145,-3.282 l-0.071,3.529 l59.988,1.209 l4.631,-229.963 l-117.814,2.843 l1.034,-124.234 l-59.998,-0.5 l-1.051,126.183 l-69.814,1.685 l0.016,-1.494 l-59.997,-0.625 l-2.443,234.77 l59.997,0.625 l0.031,-2.984 l70.315,-4.186 l-2.571,308.816 l-109.729,18.896 l10.183,59.129 l222.209,-38.267 l3.644,38.136 l59.728,-5.707 l-14.5,-151.77 L332.13599999999997,686.664 zM341.375,281.1379999999999 l-2.085,103.55 l-55.855,3.325 l0.878,-105.498 L341.375,281.1379999999999 zM153.212,395.7639999999999 l1.146,-110.113 l69.939,-1.688 l-0.896,107.623 L153.212,395.7639999999999 z"/>
	
	
	<ns0:polygon points="842.961,168.64100000000008 793.039,135.35899999999992 722.9639999999999,240.471 695.0,240.88799999999992 695.0,125.0 635.0,125.0 635.0,241.78099999999995 620.2090000000001,242.00099999999998 544.027,150.77099999999996 497.97299999999996,189.22900000000004 543.0,243.1500000000001 506.0,243.702 506.0,242.0 446.0,242.0 446.0,422.0 506.0,422.0 506.0,303.70900000000006 833.0,298.8399999999999 833.0,426.0 893.0,426.0 893.0,237.93900000000008 795.797,239.38699999999994 "/>
	
	
</svg>
