<?xml version="1.0" ?>
<svg xmlns:ns0="http://www.w3.org/2000/svg" xmlns="http://www.w3.org/2000/svg" width="1000" height="1000" version="1.1">
	<ns0:polygon points="523.9899999999998,193.10300000000007 555.8330000000001,129.41599999999994 502.1669999999999,102.58400000000006 412.1669999999999,282.58400000000006 465.8330000000001,309.41599999999994 493.645,253.79199999999992 652.0349999999999,250.2650000000001 652.8040000000001,833.2270000000001 590.2429999999999,859.3109999999999 613.3319999999999,914.6890000000001 712.8560000000002,873.1949999999999 712.0329999999999,248.9280000000001 898.6680000000001,244.77099999999996 897.3319999999999,184.78700000000003 "/>
	
	
	<ns0:rect x="2430.703" y="1568.0" transform="matrix(0.4643 -0.8857 0.8857 0.4643 -2050.9338 2111.7876)" width="232.594" height="60"/>
	
	
	<ns0:rect x="2683.932" y="1567.5" transform="matrix(-0.3387 -0.9409 0.9409 -0.3387 250.0324999999998 3776.3818)" width="239.136" height="60"/>
	
	
		
	<ns0:path d="M377.57400000000007,452.259 l-45.553,56.94 l-55.72,-50.114 c15.033,-23.622 29.772,-48.972 44.182,-76.045 c40.521,-76.132 62.778,-136.837 63.706,-139.384 l15.049,-41.318 l-110.063,2.656 l0.79,-106.772 l-59.998,-0.443 l-0.804,108.663 l-107.237,2.588 l1.447,59.982 l187.581,-4.526 c-31.37,72.447 -104.808,222.414 -205.969,305.311 l38.029,46.408 c26.514,-21.727 52.473,-48.281 77.759,-79.462 l-0.62,362.077 l60.0,0.104 l0.608,-355.128 l88.958,80.009 l40.123,-44.611 l-33.136,-29.802 l47.719,-59.649 L377.57400000000007,452.259 z"/>
	
	
</svg>
