<?xml version="1.0" ?>
<svg xmlns:ns0="http://www.w3.org/2000/svg" xmlns="http://www.w3.org/2000/svg" width="1000" height="1000" version="1.1">
	<ns0:polygon points="530.223,818.865 530.509,723.395 637.2689999999998,718.874 634.7310000000002,658.9269999999999 530.6889999999999,663.3320000000001 530.9009999999998,592.6310000000001 664.105,587.722 661.895,527.7629999999999 337.895,539.704 340.105,599.663 470.8939999999998,594.8430000000001 470.68100000000004,665.873 352.7310000000002,670.8679999999999 355.2689999999998,730.815 470.5010000000002,725.9359999999999 470.2159999999999,820.906 319.98,826.018 322.02,885.982 673.02,874.0409999999999 670.98,814.076 "/>
	
	
	<ns0:path d="M621.0,97.92900000000009 l-60.0,-0.014 l-0.085,361.0 l60.0,0.014 l0.002,-7.632 l219.083,-7.555 v401.848 l-47.884,27.363 l29.769,52.094 l78.116,-44.638 v-785.872 l-279.0,7.822 V97.92900000000009 zM620.931,391.26 l0.02,-84.22 l219.049,-6.622 v83.288 L620.931,391.26 zM840.0,156.24199999999996 v84.148 l-219.035,6.622 l0.02,-84.629 L840.0,156.24199999999996 z"/>
	
	
	<ns0:path d="M384.0,453.1769999999999 V458.0 h60.0 v-363.171 l-282.006,8.472 l0.006,-5.348 l-60.0,-0.063 l-0.844,801.078 l60.0,0.063 l0.462,-438.681 L384.0,453.1769999999999 zM161.6819999999998,400.317 l0.098,-93.327 l222.22,-8.062 v94.217 L161.6819999999998,400.317 zM384.0,156.6590000000001 v82.229 l-222.157,8.06 l0.088,-83.618 L384.0,156.6590000000001 z"/>
	
	
	<ns0:rect x="3563.0" y="1733.934" transform="matrix(-0.4674 0.8841 -0.8841 -0.4674 3834.1719000000003 -1583.9685)" width="59.999" height="65.606"/>
	
	
</svg>
