<?xml version="1.0" ?>
<svg xmlns:ns0="http://www.w3.org/2000/svg" xmlns="http://www.w3.org/2000/svg" width="1000" height="1000" version="1.1">
	<ns0:path d="M314.6809999999996,427.452 l72.851,-2.874 l-2.365,-59.953 l-70.623,2.786 l-0.152,-66.476 l73.141,-2.885 l-2.365,-59.953 l-70.912,2.797 l-0.189,-82.569 l106.652,-3.668 l-2.063,-59.965 l-252.664,8.689 l0.01,-5.47 l-60.0,-0.111 l-0.872,470.917 l262.457,-0.687 l-2.192,141.557 l-0.992,-1.837 l-52.801,28.498 l41.578,77.034 l10.697,-5.773 l-0.716,46.2 l-20.328,10.66 l27.863,53.137 l51.905,-27.217 l5.925,-382.419 l-113.659,0.297 L314.6809999999996,427.452 zM254.54899999999998,369.778 l-89.059,3.514 l0.123,-66.487 l88.783,-3.502 L254.54899999999998,369.778 zM254.06900000000041,160.3889999999999 l0.19,82.873 l-88.535,3.492 l0.154,-83.332 L254.06900000000041,160.3889999999999 zM165.3789999999999,433.3430000000001 l89.307,-3.523 l0.18,78.506 l-89.626,0.234 L165.3789999999999,433.3430000000001 z"/>
	
	
	<ns0:polygon points="550.3130000000001,97.2639999999999 550.549,376.12300000000005 506.95300000000043,339.7950000000001 416.95300000000043,447.7950000000001 463.04699999999957,486.2049999999999 550.5529999999999,381.1980000000001 550.9480000000003,848.8499999999999 489.951,871.931 511.1859999999997,928.048 610.9830000000002,890.2829999999999 610.3130000000001,97.21299999999997 "/>
	
	
	<ns0:polygon points="235.35400000000027,625.095 183.04899999999998,595.6959999999999 79.37300000000005,780.1569999999999 131.67799999999988,809.556 146.0079999999998,784.06 167.17799999999988,823.2829999999999 219.97900000000027,794.7850000000001 180.78899999999976,722.1769999999999 "/>
	
	
	<ns0:rect x="4314.737" y="1468.225" transform="matrix(-0.0013 -1.0 1.0 -0.0013 -776.2633999999998 5215.9253)" width="801.973" height="60"/>
	
	
		
	<ns0:rect x="4225.02" y="1740.517" transform="matrix(-0.475 -0.88 0.88 -0.475 738.2728999999999 5368.0029)" width="87.539" height="60.001"/>
	
	
		
	<ns0:polygon points="830.0,447.328 807.9409999999998,414.328 758.0590000000002,447.672 816.2089999999998,534.665 830.0,525.4459999999999 830.0,899.0 890.0,899.0 890.0,98.0 830.0,98.0 "/>
	
	
		
</svg>
