<?xml version="1.0" ?>
<svg xmlns:ns0="http://www.w3.org/2000/svg" xmlns="http://www.w3.org/2000/svg" width="1000" height="1000" version="1.1">
	<ns0:polygon points="275.40300000000025,332.655 401.3639999999996,322.6969999999999 396.6360000000004,262.884 276.8109999999997,272.356 280.83899999999994,99.70000000000005 220.85400000000027,98.29999999999995 216.683,277.1099999999999 99.63600000000042,286.36300000000006 104.36399999999958,346.1769999999999 215.27499999999964,337.4079999999999 213.26400000000012,423.605 76.66100000000006,816.8489999999999 133.33899999999994,836.537 208.6899999999996,619.6199999999999 202.16100000000006,899.462 262.14599999999973,900.8620000000001 273.02900000000045,434.40599999999995 273.8770000000004,431.9659999999999 395.9369999999999,595.915 444.0630000000001,560.085 275.3829999999998,333.5150000000001 "/>
	
	
	<ns0:path d="M905.9610000000002,417.951 l-1.922,-59.969 l-181.159,5.806 l-74.487,-61.645 c7.174,-14.939 13.395,-29.269 18.93,-42.864 l144.166,-4.753 l-1.977,-59.967 l-119.072,3.926 c2.153,-5.761 4.245,-11.255 6.283,-16.358 l-55.721,-22.254 c-3.81,9.539 -7.613,19.844 -11.64,30.753 c-1.202,3.256 -2.433,6.59 -3.697,9.994 l-46.926,1.548 l53.094,-78.336 l-49.666,-33.664 l-61.0,90.0 l33.622,22.789 l-55.277,1.822 l1.977,59.967 l99.537,-3.281 c-14.961,33.045 -34.744,69.69 -63.143,108.251 l-146.844,4.706 l1.922,59.969 l92.871,-2.977 c-15.606,16.287 -32.947,32.742 -52.303,49.255 l38.941,45.646 c38.738,-33.048 70.09,-65.805 95.803,-97.543 l133.841,-4.289 l145.759,120.628 l38.254,-46.223 l-93.414,-77.309 L905.9610000000002,417.951 zM612.393,367.328 c2.398,-3.799 4.721,-7.572 6.979,-11.322 l12.91,10.686 L612.393,367.328 z"/>
	
	
	<ns0:rect x="5756.0" y="1108.934" transform="matrix(-0.4674 0.8841 -0.8841 -0.4674 4499.647499999999 -4439.7666)" width="60" height="65.606"/>
	
	
	<ns0:polygon points="621.9660000000003,547.0039999999999 563.6239999999998,532.9960000000001 554.473,571.1099999999999 470.60300000000007,573.6189999999999 472.39699999999993,633.5920000000001 539.9549999999999,631.5709999999999 477.47599999999966,891.7750000000001 535.817,905.7829999999999 602.1059999999998,629.712 777.5460000000003,624.4639999999999 741.5349999999999,845.644 687.1980000000003,862.3199999999999 704.8019999999997,919.6800000000001 794.768,892.067 848.4539999999997,562.315 616.6239999999998,569.251 "/>
	
	
</svg>
